PathFileType	4	(X/Y/Z)	C:\Users\Basilio\Documents\Thesis Gigler\squatting_fais\c3dfiles\039\SLS_pre_back4\markers_experimental.trc
DataRate	CameraRate	NumFrames	NumMarkers	Units	OrigDataRate	OrigDataStartFrame	OrigNumFrames
200.000000	200.000000	4	64	mm	200.000000	1599	2133
Frame#	Time	FHD			LBHD			RBHD			C7			T10			CLAV			LSHO			LUUPA			LMUPA			LDUPA			LLEP			LMEP			LRAD			LUL			LRFIN			RSHO			RUPA1			RMUPA			RDUPA			RLEP			RMEP			RRAD			RUL			RUFIN			LASI			RASI			USACR			LSACR			RSACR			LTHI1			LTHI2			LTHI3			LTHI4			LLFC			LMFC			LTIB1			LTIB2			LTIB3			LTIB4			LLMAL			LMMAL			LHEE			LMT1			LMT2			LMT5			RTHI			RTHI2			RTHI3			RTHI4			RLFC			RMFC			RTIB1			RTIB2			RTIB3			RTIB4			RLMAL			RMMAL			RHEE			RMT1			RMT2			RMT5			*61			*62			*63			
		X1	Y1	Z1	X2	Y2	Z2	X3	Y3	Z3	X4	Y4	Z4	X5	Y5	Z5	X6	Y6	Z6	X7	Y7	Z7	X8	Y8	Z8	X9	Y9	Z9	X10	Y10	Z10	X11	Y11	Z11	X12	Y12	Z12	X13	Y13	Z13	X14	Y14	Z14	X15	Y15	Z15	X16	Y16	Z16	X17	Y17	Z17	X18	Y18	Z18	X19	Y19	Z19	X20	Y20	Z20	X21	Y21	Z21	X22	Y22	Z22	X23	Y23	Z23	X24	Y24	Z24	X25	Y25	Z25	X26	Y26	Z26	X27	Y27	Z27	X28	Y28	Z28	X29	Y29	Z29	X30	Y30	Z30	X31	Y31	Z31	X32	Y32	Z32	X33	Y33	Z33	X34	Y34	Z34	X35	Y35	Z35	X36	Y36	Z36	X37	Y37	Z37	X38	Y38	Z38	X39	Y39	Z39	X40	Y40	Z40	X41	Y41	Z41	X42	Y42	Z42	X43	Y43	Z43	X44	Y44	Z44	X45	Y45	Z45	X46	Y46	Z46	X47	Y47	Z47	X48	Y48	Z48	X49	Y49	Z49	X50	Y50	Z50	X51	Y51	Z51	X52	Y52	Z52	X53	Y53	Z53	X54	Y54	Z54	X55	Y55	Z55	X56	Y56	Z56	X57	Y57	Z57	X58	Y58	Z58	X59	Y59	Z59	X60	Y60	Z60	X61	Y61	Z61	X62	Y62	Z62	X63	Y63	Z63	X64	Y64	Z64	

1600	7.995	-191.623275756836	1689.667724609375	-650.7838745117189	-352.4527893066407	1669.563232421875	-768.557312011719	-323.4472351074219	1673.7392578125	-630.0515747070314	-405.1239013671876	1512.73828125	-706.1896972656251	-471.3524169921876	1219.437866210938	-751.0286254882814	nan	nan	nan	-336.2274780273438	1526.129272460938	-860.6520996093752	-168.9612731933594	1503.185424804688	-968.825378417969	-149.6713104248047	1535.95361328125	-936.0264282226565	-100.8080825805664	1517.261962890625	-965.9356079101565	-34.54706192016602	1530.261596679688	-958.9995727539065	-25.07878684997559	1459.08203125	-927.8332519531252	236.1035766601563	1581.647094726563	-858.124206542969	238.8818054199219	1592.093994140625	-933.8667602539065	307.8128051757813	1631.733032226563	-845.225280761719	-286.2789611816407	1520.83544921875	-558.9848632812501	-123.961410522461	1467.988647460938	-454.1528930664064	-100.227035522461	1504.89453125	-478.4626464843751	-55.47285079956056	1470.121337890625	-457.1714172363282	6.145440578460695	1489.474243164063	-466.235565185547	17.58258438110352	1426.142578125	-510.153289794922	288.0074462890626	1567.51220703125	-544.8793334960939	291.7694091796876	1551.753051757813	-471.2213134765626	362.1612548828126	1619.953491210938	-537.0485839843751	-355.7830200195313	1012.195678710938	-875.445983886719	-351.6989135742188	1007.634887695313	-652.6771240234376	-520.5870971679689	1093.252319335938	-759.2102050781251	-531.2209472656251	1061.83984375	-786.133239746094	-530.1785278320314	1062.897216796875	-726.7437133789064	-374.4390258789063	769.8227539062502	-996.2641601562502	-320.9438476562501	706.7731323242189	-1021.22216796875	-275.1157531738282	715.0003662109376	-1012.309020996094	-334.2564086914063	645.2112426757814	-1017.824951171875	-310.6690673828126	567.0925292968751	-1023.501525878906	-279.8209228515626	502.882049560547	-927.1625976562502	-401.4713134765626	471.7867126464845	-1006.8583984375	-454.4566650390626	540.7354125976564	-1005.489135742188	-453.141571044922	497.8724060058595	-1011.474365234375	-519.1889038085939	472.1987915039064	-959.9741210937502	-694.2366943359376	517.6442871093751	-932.7678833007815	-671.8154907226564	467.5698852539064	-865.1619873046877	-695.7702636718751	571.8356933593751	-864.3092041015627	-790.8635864257815	358.9196166992188	-876.6678466796877	-807.313659667969	375.8344116210938	-912.4285888671877	-830.9199829101565	438.7622985839845	-935.741394042969	-324.7588806152344	751.6989746093751	-594.6840209960939	-266.4372558593751	718.1506347656251	-597.5366821289064	-238.4049377441407	733.5115356445314	-604.3391113281251	-260.7858276367188	633.9313964843751	-614.2550659179689	-247.0809478759766	507.4385070800782	-653.0629882812501	-217.9793853759766	516.7387084960939	-765.8016357421876	-242.7335662841797	304.8749389648438	-704.5353393554689	-338.0392150878907	255.3359527587891	-701.7468872070314	-294.3476562500001	238.8274230957032	-707.9515991210939	-285.8002319335938	193.8710327148438	-747.2323608398439	-367.4160461425782	112.5420837402344	-737.2482299804689	-337.6224060058594	137.423812866211	-819.5263671875002	-438.9957580566407	96.08679962158206	-793.1848144531252	-214.7866516113282	56.52967453002931	-805.0054931640627	-218.1901092529297	55.85198974609376	-759.4459228515626	-273.2874450683594	34.75412750244141	-709.1916503906251	nan	nan	nan	nan	nan	nan	nan	nan	nan	
1601	8	-191.9718322753907	1690.982788085938	-650.5645751953126	-354.1010742187501	1671.103271484375	-768.4248046875002	-323.8038635253907	1675.276489257813	-629.8793334960939	-405.416229248047	1513.967651367188	-706.0944824218751	-471.1797180175782	1220.497680664063	-750.7528076171876	nan	nan	nan	-335.8911132812501	1527.080810546875	-860.2356567382815	-169.4753723144532	1504.303955078125	-968.8165283203127	-149.9063262939453	1537.491455078125	-936.0374145507815	-101.2682495117188	1518.508178710938	-965.9245605468752	-34.90942764282227	1531.53271484375	-959.0735473632815	-25.46935081481934	1460.324096679688	-927.8852539062502	235.6735076904297	1583.02197265625	-858.2879028320315	238.4014739990235	1593.392211914063	-934.014831542969	307.7675781250001	1633.115600585938	-845.2785644531252	-286.6557006835938	1522.450927734375	-558.8451538085939	-124.2924957275391	1469.19140625	-453.898651123047	-100.2344665527344	1506.519653320313	-478.1014099121095	-55.81065368652345	1471.341674804688	-456.8074340820314	5.817279815673829	1490.884033203125	-466.1171264648439	17.16732215881348	1427.286499023438	-510.1983947753907	287.7185668945313	1568.841796875	-544.8894042968751	291.4689025878907	1553.120727539063	-471.2463378906251	361.7774963378907	1621.498291015625	-536.9981079101564	-355.3170166015626	1013.490234375	-875.316589355469	-351.1968078613282	1008.456909179688	-652.3353271484376	-520.1359863281251	1094.0224609375	-758.9027709960939	-530.9573974609376	1062.680419921875	-785.8381958007815	-529.6367187500001	1063.585327148438	-726.3688354492189	-374.1578979492188	770.7897949218752	-996.1796875000002	-320.8149719238282	707.6490478515626	-1020.998046875	-274.4645996093751	715.6029052734376	-1012.152709960938	-334.0769958496094	646.0532226562501	-1017.703857421875	-310.2509765625001	568.0806884765626	-1023.377197265625	-279.6523742675782	504.0865173339845	-927.167419433594	-401.2213439941407	472.7376098632814	-1006.781555175781	-454.244598388672	541.5228271484376	-1005.276123046875	-452.859588623047	498.0050659179689	-1011.341918945313	-518.8892211914064	472.8848876953126	-959.5446777343752	-694.0676269531251	518.1741943359376	-932.5656738281252	-671.5583496093751	467.654022216797	-865.0848388671877	-695.6983642578126	572.4638671875001	-864.077575683594	-790.456481933594	359.4280700683594	-876.4453735351565	-806.9050292968752	376.4351501464844	-912.263610839844	-830.7342529296877	439.1866455078126	-935.4567871093752	-324.7103576660157	752.5027465820314	-594.4927368164064	-266.5937500000001	718.7183227539064	-597.4340209960939	-238.4453125000001	733.9558715820314	-604.2282714843751	-261.2836303710938	634.5095825195314	-614.1086425781251	-247.8690948486329	507.8704833984376	-652.8836669921876	-218.561752319336	517.0017089843751	-765.6552124023439	-243.1982879638672	305.1340637207032	-704.1690063476564	-338.3969116210938	255.3674621582032	-701.5276489257814	-294.7443847656251	239.0239715576172	-707.7424926757814	-286.1524963378907	193.6123809814454	-747.0383300781251	-367.5015563964844	112.6073379516602	-737.0328369140626	-337.5558471679688	137.5227508544922	-819.2338867187502	-439.0557861328126	96.27037048339847	-792.8860473632815	-214.7633514404297	56.76818084716798	-805.2371215820315	-218.1674346923829	55.97177505493165	-759.3244628906251	-273.3042602539063	34.72187423706055	-709.1931152343751	nan	nan	nan	nan	nan	nan	nan	nan	nan	
1602	8.005000000000001	-192.3444213867188	1692.43212890625	-650.6186523437501	-354.6207275390626	1672.249633789063	-768.0344848632815	-324.1052551269532	1676.432983398438	-629.8516235351564	-405.7884216308595	1515.064086914063	-705.8612060546876	-471.128387451172	1221.418701171875	-750.4436645507814	nan	nan	nan	-337.0150146484376	1528.4560546875	-860.2917480468752	-169.7645111083985	1505.494506835938	-968.8253173828127	-150.2997741699219	1538.668212890625	-935.891784667969	-101.7898254394532	1519.931884765625	-965.9095458984377	-35.43898391723634	1532.70703125	-959.1063232421877	-25.83159828186036	1461.629150390625	-927.9581298828127	235.1764221191407	1584.423828125	-858.538269042969	237.9644012451172	1594.824462890625	-934.1746826171877	306.8739318847657	1634.667846679688	-845.5028076171877	-286.7775878906251	1523.423583984375	-558.4936523437501	-124.5373687744141	1470.618041992188	-453.8678588867189	-100.7055358886719	1507.67626953125	-478.1387023925782	-56.01381683349611	1472.819458007813	-456.8267211914064	5.612300872802735	1492.055419921875	-466.0023803710939	17.02834701538086	1428.452880859375	-509.8767089843751	287.5527038574219	1570.083251953125	-544.7624511718751	291.1180419921876	1554.44384765625	-470.9117736816407	361.5220031738282	1622.670776367188	-536.9976806640626	-355.0709533691407	1014.604187011719	-875.0600585937502	-350.9061889648438	1009.397521972656	-652.7166748046876	-519.8320312500001	1095.054321289063	-758.5906372070314	-530.4682006835939	1063.77880859375	-785.5806274414065	-529.3052368164064	1064.513305664063	-726.2030639648439	-373.9823608398438	771.7659301757815	-996.098327636719	-320.6499023437501	708.6604003906251	-1021.1953125	-274.4316101074219	716.6398925781251	-1012.094177246094	-333.9338378906251	647.0138549804689	-1017.777221679688	-310.3068542480469	569.0748291015626	-1023.279846191406	-279.2483520507813	505.1054077148439	-927.1143188476565	-401.0289306640626	473.6822814941407	-1006.652282714844	-454.139129638672	542.4335937500001	-1005.174255371094	-452.886688232422	498.9754943847657	-1011.302978515625	-518.7625732421876	473.4848937988282	-959.5759887695315	-693.9442138671876	518.3419799804689	-932.482604980469	-671.3190307617189	468.3378295898439	-864.4321899414065	-695.5164184570314	572.9821777343751	-863.843444824219	-790.1354980468752	359.7922058105469	-876.206481933594	-806.654724121094	376.8293151855469	-912.1284790039065	-830.5462036132815	439.6184692382814	-935.2195434570315	-324.6554260253907	753.2713012695314	-594.3252563476564	-266.6106567382813	719.2507324218751	-597.5317993164064	-238.3561401367188	734.3843994140626	-604.2013549804689	-261.5510864257813	634.8134765625001	-614.0233764648439	-248.666244506836	508.2928771972657	-652.6258544921876	-219.0738525390626	517.2606201171876	-765.4432373046876	-243.7997589111329	305.4676513671876	-703.7532348632814	-338.8778076171876	255.5812225341797	-701.2676391601564	-295.1743469238282	239.0474395751954	-707.4841918945314	-286.4308166503907	193.8550567626954	-746.7266235351564	-367.6399536132813	112.5315628051758	-736.8370361328126	-337.4871520996094	137.5400543212891	-818.907897949219	-439.1543273925782	96.29297637939456	-792.773132324219	-214.6850891113282	56.97786331176759	-805.151062011719	-218.1175537109376	56.1175003051758	-759.2144165039064	-273.3332214355469	34.70772933959962	-709.1688842773439	nan	nan	nan	nan	nan	nan	nan	nan	nan	
1603	8.01	-192.7567291259766	1693.523559570313	-650.2715454101564	-354.7705993652344	1673.54736328125	-767.8996582031251	-324.3298034667969	1677.6826171875	-629.6365966796876	-406.0466918945314	1516.13623046875	-705.5662231445314	-470.9443664550782	1222.364013671875	-750.1791992187501	nan	nan	nan	-337.3994445800782	1529.737060546875	-860.094909667969	-170.2712097167969	1506.685546875	-968.7587890625002	-150.755615234375	1539.93505859375	-935.9396972656252	-102.1125869750977	1520.911376953125	-965.9572753906252	-35.7716178894043	1534.106201171875	-959.215026855469	-26.26117324829102	1463.001098632813	-928.150085449219	234.8986968994141	1585.74365234375	-858.7005615234377	237.5681152343751	1596.160034179688	-934.2918090820315	306.7601928710938	1635.577758789063	-845.619812011719	-287.0601806640626	1524.872436523438	-558.3660278320314	-124.7157058715821	1472.040283203125	-453.5551147460939	-100.5991516113282	1509.118286132813	-477.7796325683595	-56.22364807128908	1473.89404296875	-456.5045776367189	5.429903507232667	1493.3974609375	-465.892059326172	16.60465812683106	1429.632568359375	-509.8606567382814	287.1505432128907	1571.30029296875	-544.7973022460939	291.0993652343751	1555.984008789063	-470.7306518554689	361.1434326171876	1623.8974609375	-536.9456176757814	-354.4679565429688	1015.713562011719	-874.8474731445315	-350.0158386230469	1010.73828125	-652.1759033203126	-519.4071044921876	1096.022583007813	-758.3010253906251	-530.0982666015626	1064.550048828125	-785.3358154296877	-529.0935058593751	1065.659545898438	-725.9856567382814	-373.7696228027344	772.7845458984377	-995.9483032226565	-320.5129089355469	709.7783203125001	-1021.116638183594	-274.2766418457032	717.8065795898439	-1012.308776855469	-333.7587585449219	648.1958618164064	-1017.704040527344	-310.2443237304688	570.0369262695314	-1023.320007324219	-279.5526733398438	504.8206176757814	-927.9132080078127	-400.790008544922	474.5220642089845	-1006.605407714844	-454.0762023925782	543.3312988281251	-1005.098876953125	-452.7077636718751	499.7583312988282	-1011.274475097656	-518.7146606445314	474.3116760253907	-959.7393798828127	-693.8125000000001	518.8284912109376	-932.3472290039065	-671.2194824218751	468.9602355957032	-864.6655883789065	-695.2926025390626	573.4780883789064	-863.661804199219	-789.7827758789065	360.1311035156251	-876.084899902344	-806.3904418945315	377.1963806152344	-911.940856933594	-830.3035888671877	440.3867797851564	-934.852966308594	-324.5965576171876	754.0324096679689	-593.9849243164064	-266.7104187011719	719.8590698242189	-597.3443603515626	-238.3593444824219	734.8335571289064	-603.9891967773439	-261.8081359863282	635.3575439453126	-613.9089355468751	-249.2724914550782	508.673065185547	-652.4780273437501	-219.6793975830079	517.6367187500001	-765.1456298828126	-244.292221069336	305.7675170898438	-703.3733520507814	-339.3467102050782	255.6228179931641	-700.8519897460939	-295.6235961914063	239.2885742187501	-707.1205444335939	-286.6513366699219	193.9613800048829	-746.3039550781251	-367.7767639160157	112.396713256836	-736.4848022460939	-337.3349609375001	137.6223297119141	-818.493103027344	-439.219207763672	96.2654724121094	-792.5957641601565	-214.6925506591797	57.35633087158205	-805.0825195312502	-218.1228942871094	56.29501342773439	-759.0112304687501	-273.3260803222657	34.60463333129884	-709.1478271484376	nan	nan	nan	nan	nan	nan	nan	nan	nan	
